# This file uses centimeters as units for non-parametric coordinates.

mtllib Lab 3 Export-Hammer.mtl
g default
v -0.500000 -0.000000 0.500000
v 0.500000 0.000000 0.500000
v -0.500000 7.321573 0.500000
v 0.500000 7.321573 0.500000
v -0.500000 7.321573 -0.500000
v 0.500000 7.321573 -0.500000
v -0.500000 -0.000000 -0.500000
v 0.500000 0.000000 -0.500000
v -0.375000 7.604801 0.375000
v 0.375000 7.604801 0.375000
v 0.375000 7.604801 -0.375000
v -0.375000 7.604801 -0.375000
v -0.375000 11.898472 0.375000
v 0.375000 11.898472 0.375000
v 0.375000 11.898472 -0.375000
v -0.375000 11.898472 -0.375000
v 0.000000 11.898472 0.511636
v 0.000000 11.898472 -0.511636
v 0.000000 7.604801 -0.511636
v 0.000000 7.321573 -0.682181
v 0.000000 0.000000 -0.682181
v 0.000000 0.000000 0.682181
v 0.000000 7.321573 0.682181
v 0.000000 7.604801 0.511636
v 0.537914 11.898472 0.000000
v -0.537914 11.898472 0.000000
v -0.537914 7.604801 0.000000
v -0.825828 7.321573 0.000000
v -0.825828 0.000000 0.000000
v 0.000000 0.000000 0.000000
v 0.825828 -0.000000 0.000000
v 0.825828 7.321573 0.000000
v 0.537914 7.604801 0.000000
v -0.631560 12.276183 0.631560
v 0.631560 12.276183 0.631560
v -0.631560 13.539302 0.631560
v 0.631560 13.539302 0.631560
v -0.631560 13.539302 -0.631560
v 0.631560 13.539302 -0.631560
v -0.631560 12.276183 -0.631560
v 0.631560 12.276183 -0.631560
v 0.970640 12.370916 -0.536826
v 0.970640 12.370916 0.536826
v 0.970640 13.444568 -0.536826
v 0.970640 13.444568 0.536826
v -0.970640 12.370916 -0.536826
v -0.970640 12.370916 0.536826
v -0.970640 13.444568 0.536826
v -0.970640 13.444568 -0.536826
v 1.607237 12.370916 -0.536826
v 1.607237 12.370916 0.536826
v 1.607237 13.444568 -0.536826
v 1.607237 13.444568 0.536826
v -1.607237 12.370916 -0.536826
v -1.607237 12.370916 0.536826
v -1.607237 13.444568 0.536826
v -1.607237 13.444568 -0.536826
v 2.259654 11.957859 -0.949883
v 2.259654 11.957859 0.949883
v 2.259654 13.857626 -0.949883
v 2.259654 13.857626 0.949883
v -2.259654 11.957859 -0.949883
v -2.259654 11.957859 0.949883
v -2.259654 13.857626 0.949883
v -2.259654 13.857626 -0.949883
v 3.213846 11.957859 -0.949883
v 3.213846 11.957859 0.949883
v 3.213846 13.857626 -0.949883
v 3.213846 13.857626 0.949883
v -3.213846 11.957859 -0.949883
v -3.213847 11.957859 0.949883
v -3.213846 13.857626 0.949883
v -3.213846 13.857626 -0.949883
v 3.213846 14.314884 0.000000
v 2.259654 14.314884 0.000000
v 1.607237 13.702986 0.000000
v 0.970640 13.702986 0.000000
v 0.631560 13.843325 0.000000
v -0.631560 13.843325 0.000000
v -0.970640 13.702986 -0.000000
v -1.607238 13.702986 0.000000
v -2.259654 14.314884 0.000000
v -3.213845 14.314884 0.000000
v -3.213846 11.500601 0.000000
v -2.259654 11.500601 0.000000
v -1.607237 12.112497 0.000000
v -0.970640 12.112497 -0.000000
v -0.631560 11.972160 0.000000
v 0.631560 11.972160 0.000000
v 0.970640 12.112497 0.000000
v 1.607237 12.112497 0.000000
v 2.259654 11.500601 0.000000
v 3.213846 11.500601 0.000000
v 3.213846 12.907743 1.162216
v 2.259654 12.907743 1.162216
v 1.607237 12.907742 0.656825
v 0.970640 12.907742 0.656825
v 0.631560 12.907743 0.772736
v -0.631560 12.907743 0.772736
v -0.970640 12.907742 0.656825
v -1.607237 12.907742 0.656825
v -2.259654 12.907743 1.162216
v -3.213846 12.907743 1.162216
v -3.213846 12.907743 0.000000
v -3.213846 12.907743 -1.162216
v -2.259654 12.907743 -1.162216
v -1.607237 12.907742 -0.656825
v -0.970640 12.907742 -0.656825
v -0.631560 12.907743 -0.772736
v 0.631560 12.907743 -0.772736
v 0.970640 12.907742 -0.656825
v 1.607237 12.907742 -0.656825
v 2.259654 12.907743 -1.162216
v 3.213846 12.907743 -1.162216
v 3.213846 12.907743 0.000000
v 0.000000 13.539302 0.631560
v 0.000000 13.843325 0.000000
v 0.000000 13.539302 -0.631560
v 0.000000 12.907743 -0.772736
v 0.000000 12.276183 -0.631560
v 0.000000 12.276183 0.631560
v 0.000000 12.907743 0.772736
vt 0.507640 0.865967
vt 0.568972 0.865967
vt 0.568972 0.927298
vt 0.531839 0.910920
vt 0.630304 0.865967
vt 0.606105 0.910919
vt 0.531839 0.821014
vt 0.568972 0.804635
vt 0.606105 0.821014
vt 0.162802 0.020272
vt 0.207114 0.020127
vt 0.207229 0.618628
vt 0.164878 0.618374
vt 0.070502 0.622454
vt 0.027583 0.628666
vt 0.019902 0.022495
vt 0.063551 0.021730
vt 0.251420 0.020330
vt 0.301094 0.020651
vt 0.296859 0.616700
vt 0.249583 0.618421
vt 0.112956 0.020842
vt 0.117767 0.616421
vt 0.787516 0.628702
vt 0.754903 0.628785
vt 0.853538 0.628532
vt 0.820129 0.628618
vt 0.076921 0.648393
vt 0.655473 0.629041
vt 0.120333 0.647595
vt 0.788417 0.979548
vt 0.755804 0.979631
vt 0.854439 0.979378
vt 0.821030 0.979464
vt 0.688987 0.979803
vt 0.656374 0.979887
vt 0.722395 0.979717
vt 0.886947 0.628446
vt 0.887848 0.979292
vt 0.344136 0.622671
vt 0.373086 0.654852
vt 0.920460 0.979209
vt 0.387069 0.628799
vt 0.350486 0.021423
vt 0.394132 0.022079
vt 0.054375 0.799517
vt 0.139780 0.765560
vt 0.139780 0.870057
vt 0.035284 0.870057
vt 0.377671 0.759580
vt 0.463076 0.793537
vt 0.482167 0.864077
vt 0.377671 0.864077
vt 0.292265 0.793537
vt 0.273174 0.864077
vt 0.225185 0.799517
vt 0.244276 0.870057
vt 0.463076 0.934617
vt 0.377671 0.968573
vt 0.292265 0.934617
vt 0.139780 0.974553
vt 0.225185 0.940597
vt 0.054375 0.940597
vt 0.732142 0.277839
vt 0.722110 0.224961
vt 0.753266 0.220770
vt 0.762100 0.275163
vt 0.709771 0.531137
vt 0.737552 0.531132
vt 0.724214 0.427955
vt 0.733089 0.374533
vt 0.763047 0.377169
vt 0.755398 0.432090
vt 0.738252 0.326178
vt 0.766148 0.326238
vt 0.656931 0.224452
vt 0.647061 0.277777
vt 0.617188 0.274640
vt 0.625858 0.219702
vt 0.640901 0.326055
vt 0.612958 0.325649
vt 0.646675 0.374457
vt 0.655638 0.427595
vt 0.624410 0.431392
vt 0.616750 0.376761
vt 0.670470 0.530705
vt 0.666272 0.170677
vt 0.642761 0.530592
vt 0.805691 0.210978
vt 0.816519 0.269850
vt 0.781377 0.545419
vt 0.818144 0.382428
vt 0.808986 0.441213
vt 0.820093 0.325998
vt 0.562529 0.268543
vt 0.572617 0.209695
vt 0.559723 0.325055
vt 0.571586 0.440490
vt 0.561757 0.381405
vt 0.599485 0.544798
vt 0.880463 0.190547
vt 0.888201 0.260274
vt 0.830242 0.593191
vt 0.890537 0.389897
vt 0.884478 0.459587
vt 0.886882 0.324901
vt 0.490559 0.259995
vt 0.497556 0.190484
vt 0.492710 0.324915
vt 0.496155 0.459439
vt 0.490426 0.389803
vt 0.551630 0.592645
vt 0.954971 0.170849
vt 0.967272 0.250560
vt 0.903343 0.628687
vt 0.930227 0.090903
vt 0.969589 0.394671
vt 0.961670 0.475714
vt 0.968682 0.323054
vt 0.411810 0.253861
vt 0.420662 0.173672
vt 0.411900 0.325077
vt 0.421031 0.477193
vt 0.410041 0.396827
vt 0.479225 0.628853
vt 0.863192 0.527695
vt 0.938236 0.557294
vt 0.798542 0.498424
vt 0.745475 0.485462
vt 0.715783 0.481477
vt 0.664419 0.481050
vt 0.634784 0.484895
vt 0.582239 0.497758
vt 0.518368 0.527320
vt 0.444335 0.557912
vt 0.712305 0.171768
vt 0.705405 0.122256
vt 0.672961 0.119628
vt 0.636544 0.166473
vt 0.645228 0.118968
vt 0.741845 0.167485
vt 0.733080 0.121948
vt 0.583725 0.152401
vt 0.600442 0.106623
vt 0.793976 0.153841
vt 0.775894 0.107090
vt 0.518961 0.122251
vt 0.552697 0.058399
vt 0.857004 0.123088
vt 0.822549 0.058420
vt 0.894070 0.020730
vt 0.444626 0.093261
vt 0.478705 0.020113
vt 0.430927 0.654341
vt 0.432092 0.707180
vt 0.377912 0.707210
vt 0.377571 0.654845
vt 0.323917 0.654839
vt 0.324022 0.707242
vt 0.265753 0.707269
vt 0.265710 0.654821
vt 0.153706 0.654852
vt 0.153732 0.707323
vt 0.547604 0.707117
vt 0.548596 0.654403
vt 0.207505 0.707298
vt 0.207477 0.654831
vt 0.323977 0.759638
vt 0.265759 0.759725
vt 0.207526 0.759767
vt 0.153755 0.759795
vt 0.548654 0.759830
vt 0.430985 0.760021
vt 0.377629 0.759575
vt 0.465358 0.707162
vt 0.469287 0.739861
vt 0.489827 0.764831
vt 0.489825 0.773472
vt 0.510381 0.739731
vt 0.514311 0.707135
vt 0.510345 0.674544
vt 0.489764 0.649467
vt 0.489752 0.640825
vt 0.469251 0.674459
vt 0.601539 0.707088
vt 0.602200 0.654762
vt 0.602257 0.759413
vt 0.294209 0.647827
vt 0.337714 0.648608
vt 0.721494 0.628871
vt 0.688086 0.628957
vt 0.207198 0.643803
vt 0.249465 0.645164
vt 0.919559 0.628363
vt 0.041587 0.654694
vt 0.164957 0.645089
vn -0.342346 0.000000 0.939574
vn -0.000000 0.000000 1.000000
vn 0.000000 0.017549 0.999846
vn -0.342302 0.015937 0.939455
vn -0.342302 0.015937 -0.939455
vn 0.000000 0.017549 -0.999846
vn -0.000000 0.000000 -1.000000
vn -0.342346 0.000000 -0.939574
vn 0.000000 -1.000000 0.000000
vn 0.000000 -1.000000 0.000000
vn 0.000000 -1.000000 0.000000
vn 0.000000 -1.000000 -0.000000
vn 0.837809 -0.000000 0.545964
vn 1.000000 -0.000000 0.000000
vn 0.999780 0.020970 0.000000
vn 0.838698 0.021820 0.544159
vn -1.000000 -0.000000 0.000000
vn -0.837809 -0.000000 0.545964
vn -0.838698 0.021820 0.544159
vn -0.999780 0.020970 0.000000
vn -0.000000 0.047455 0.998873
vn -0.341988 0.045715 0.938592
vn 0.997480 0.070952 0.000000
vn 0.912100 0.061905 0.405267
vn -0.341988 0.045715 -0.938592
vn 0.000000 0.047455 -0.998873
vn -0.912100 0.061905 0.405267
vn -0.997480 0.070952 -0.000000
vn 0.000000 0.000000 1.000000
vn -0.342346 0.000000 0.939574
vn 1.000000 0.000000 0.000000
vn 0.917186 0.000000 0.398460
vn -0.342346 0.000000 -0.939574
vn 0.000000 0.000000 -1.000000
vn -0.917186 0.000000 0.398460
vn -1.000000 0.000000 0.000000
vn 0.341988 0.045715 -0.938592
vn 0.342346 0.000000 -0.939574
vn 0.342302 0.015937 -0.939455
vn 0.342346 0.000000 -0.939574
vn 0.000000 -1.000000 0.000000
vn 0.000000 -1.000000 0.000000
vn 0.342346 0.000000 0.939574
vn 0.342302 0.015937 0.939455
vn 0.341988 0.045715 0.938592
vn 0.342346 0.000000 0.939574
vn -0.912100 0.061905 -0.405267
vn -0.917186 0.000000 -0.398460
vn -0.838698 0.021820 -0.544159
vn -0.837809 -0.000000 -0.545964
vn 0.000000 -1.000000 0.000000
vn 0.000000 -1.000000 0.000000
vn 0.000000 -1.000000 -0.000000
vn 0.837809 -0.000000 -0.545964
vn 0.838698 0.021820 -0.544159
vn 0.912100 0.061905 -0.405267
vn 0.917186 0.000000 -0.398460
vn -0.100449 -0.217048 0.970979
vn 0.000000 -0.218152 0.975915
vn 0.000000 0.000000 1.000000
vn -0.109314 0.000000 0.994007
vn -0.116374 0.894914 0.430798
vn 0.000000 0.901036 0.433745
vn 0.000000 1.000000 0.000000
vn -0.126229 0.992001 0.000000
vn -0.109314 0.000000 -0.994007
vn 0.000000 0.000000 -1.000000
vn 0.000000 -0.218152 -0.975915
vn -0.100449 -0.217048 -0.970979
vn 1.000000 -0.000000 0.000000
vn 1.000000 -0.000000 0.000000
vn 1.000000 0.000000 0.000000
vn 1.000000 0.000000 0.000000
vn -1.000000 0.000000 -0.000000
vn -1.000000 0.000000 -0.000000
vn -1.000000 0.000000 -0.000000
vn -1.000000 0.000000 -0.000000
vn 0.349411 -0.844244 0.406405
vn 0.382416 -0.923990 0.000000
vn 0.159614 -0.987180 0.000000
vn 0.141916 -0.891917 0.429353
vn 0.100449 -0.217048 -0.970979
vn 0.109314 0.000000 -0.994007
vn 0.127889 -0.000000 -0.991789
vn 0.130630 -0.216282 -0.967552
vn 0.126229 0.992001 0.000000
vn 0.116374 0.894914 0.430797
vn 0.141918 0.891917 0.429352
vn 0.159616 0.987179 0.000000
vn 0.109314 0.000000 0.994007
vn 0.100449 -0.217048 0.970979
vn 0.130630 -0.216282 0.967552
vn 0.127889 -0.000000 0.991789
vn -0.382416 -0.923990 0.000000
vn -0.349411 -0.844244 0.406405
vn -0.141916 -0.891917 0.429353
vn -0.159614 -0.987180 -0.000001
vn -0.127889 -0.000000 0.991789
vn -0.130630 -0.216282 0.967552
vn -0.159615 0.987179 -0.000000
vn -0.141917 0.891916 0.429354
vn -0.130630 -0.216282 -0.967552
vn -0.127889 -0.000000 -0.991789
vn 0.000000 -1.000000 0.000000
vn 0.000000 -0.901037 0.433743
vn 0.000000 0.000000 -1.000000
vn 0.000000 -0.218152 -0.975915
vn 0.000000 0.901037 0.433742
vn 0.000000 1.000000 0.000000
vn 0.000000 -0.218152 0.975915
vn 0.000000 0.000000 1.000000
vn 0.000000 -0.901037 0.433743
vn 0.000000 -1.000000 -0.000001
vn 0.000000 -0.000000 1.000000
vn 0.000000 -0.218152 0.975915
vn -0.000000 1.000000 0.000000
vn 0.000000 0.901036 0.433744
vn 0.000000 -0.218152 -0.975915
vn -0.000000 0.000000 -1.000000
vn -0.645462 -0.688205 0.331291
vn -0.684093 -0.729394 0.000000
vn -0.684093 -0.729394 0.000000
vn -0.645462 -0.688205 0.331291
vn -0.603052 -0.174020 -0.778489
vn -0.612396 -0.000000 -0.790551
vn -0.612396 0.000000 -0.790551
vn -0.603052 -0.174020 -0.778489
vn -0.684094 0.729394 0.000000
vn -0.645463 0.688204 0.331290
vn -0.645463 0.688204 0.331290
vn -0.684094 0.729394 0.000000
vn -0.612396 -0.000000 0.790551
vn -0.603052 -0.174020 0.778489
vn -0.603052 -0.174020 0.778489
vn -0.612396 0.000000 0.790551
vn 0.684094 -0.729394 -0.000000
vn 0.645462 -0.688205 0.331291
vn 0.645462 -0.688205 0.331291
vn 0.684094 -0.729394 -0.000000
vn 0.603052 -0.174020 0.778489
vn 0.612396 -0.000000 0.790551
vn 0.612396 0.000000 0.790551
vn 0.603052 -0.174020 0.778489
vn 0.645463 0.688204 0.331290
vn 0.684094 0.729394 -0.000000
vn 0.684094 0.729394 -0.000000
vn 0.645463 0.688204 0.331290
vn 0.612396 -0.000000 -0.790551
vn 0.603052 -0.174020 -0.778489
vn 0.603052 -0.174020 -0.778489
vn 0.612396 0.000000 -0.790551
vn 0.000000 -0.901036 0.433744
vn 0.000000 -1.000000 0.000000
vn 0.000000 -1.000000 0.000000
vn 0.000000 -0.901036 0.433744
vn 0.000000 -0.218151 -0.975915
vn 0.000000 0.000000 -1.000000
vn 0.000000 0.000000 -1.000000
vn 0.000000 -0.218151 -0.975915
vn 0.000000 1.000000 0.000000
vn 0.000000 0.901036 0.433744
vn 0.000000 0.901036 0.433744
vn 0.000000 1.000000 0.000000
vn 0.000000 0.000000 1.000000
vn 0.000000 -0.218151 0.975915
vn 0.000000 -0.218151 0.975915
vn 0.000000 0.000000 1.000000
vn -0.000000 -1.000000 0.000000
vn -0.000000 -0.901036 0.433744
vn -0.000000 -0.901036 0.433744
vn -0.000000 -1.000000 0.000000
vn 0.000000 -0.218151 0.975915
vn 0.000000 -0.000000 1.000000
vn 0.000000 -0.000000 1.000000
vn 0.000000 -0.218151 0.975915
vn 0.000000 0.901036 0.433744
vn 0.000000 1.000000 0.000000
vn 0.000000 1.000000 0.000000
vn 0.000000 0.901036 0.433744
vn 0.000000 0.000000 -1.000000
vn 0.000000 -0.218151 -0.975915
vn 0.000000 -0.218151 -0.975915
vn 0.000000 0.000000 -1.000000
vn 0.000000 0.901036 -0.433744
vn 0.000000 0.901036 -0.433744
vn -0.645463 0.688204 -0.331290
vn -0.645463 0.688204 -0.331290
vn 0.141918 0.891917 -0.429352
vn 0.000000 0.901037 -0.433742
vn 0.116374 0.894914 -0.430797
vn 0.000000 0.901036 -0.433745
vn -0.116374 0.894914 -0.430798
vn -0.141917 0.891916 -0.429354
vn -0.000000 0.901036 -0.433744
vn 0.645463 0.688204 -0.331290
vn 0.645463 0.688204 -0.331290
vn 0.000000 0.901036 -0.433744
vn 0.000000 0.901036 -0.433744
vn -1.000000 -0.000000 0.000000
vn -1.000000 0.000000 0.000000
vn 0.000000 -0.901036 -0.433744
vn 0.000000 -0.901036 -0.433744
vn 0.645462 -0.688205 -0.331291
vn 0.645462 -0.688205 -0.331291
vn -0.141916 -0.891917 -0.429354
vn -0.000000 -0.901036 -0.433744
vn -0.349411 -0.844244 -0.406405
vn 0.349411 -0.844244 -0.406405
vn 0.141916 -0.891917 -0.429353
vn 0.000000 -0.901037 -0.433743
vn -0.645462 -0.688205 -0.331291
vn -0.645462 -0.688205 -0.331291
vn 0.000000 -0.901036 -0.433744
vn 0.000000 -0.901036 -0.433744
vn 1.000000 0.000000 0.000000
vn 1.000000 0.000000 0.000000
vn 0.000000 0.218151 0.975915
vn 0.000000 0.218151 0.975915
vn -0.603052 0.174020 0.778489
vn -0.603052 0.174020 0.778489
vn 0.130631 0.216282 0.967553
vn 0.000000 0.218151 0.975915
vn 0.100449 0.217048 0.970979
vn 0.000000 0.218151 0.975915
vn -0.100449 0.217048 0.970979
vn -0.130631 0.216281 0.967553
vn 0.000000 0.218151 0.975915
vn 0.603052 0.174020 0.778489
vn 0.603052 0.174020 0.778489
vn 0.000000 0.218151 0.975915
vn 0.000000 0.218151 0.975915
vn -1.000000 0.000000 -0.000000
vn -1.000000 0.000000 0.000000
vn -1.000000 0.000000 0.000000
vn 0.000000 0.218151 -0.975915
vn 0.000000 0.218151 -0.975915
vn 0.603052 0.174020 -0.778489
vn 0.603052 0.174020 -0.778489
vn -0.130631 0.216282 -0.967552
vn -0.000000 0.218151 -0.975915
vn -0.100449 0.217048 -0.970979
vn 0.000000 0.218151 -0.975915
vn 0.100449 0.217048 -0.970979
vn 0.130631 0.216282 -0.967553
vn 0.000000 0.218151 -0.975915
vn -0.603052 0.174020 -0.778489
vn -0.603052 0.174020 -0.778489
vn 0.000000 0.218151 -0.975915
vn 0.000000 0.218151 -0.975915
vn 1.000000 0.000000 0.000000
vn 1.000000 0.000000 0.000000
vn 1.000000 0.000000 0.000000
vn 0.118381 -0.474828 0.872081
vn 0.118381 -0.474828 0.872081
vn 0.118381 -0.474828 0.872081
vn 0.118381 -0.474828 0.872081
vn 0.655634 -0.686884 0.313585
vn 0.655634 -0.686884 0.313585
vn 0.655634 -0.686884 0.313585
vn 0.655633 -0.686884 0.313585
vn 0.655634 -0.686884 -0.313584
vn 0.655634 -0.686884 -0.313584
vn 0.655634 -0.686884 -0.313584
vn 0.655634 -0.686884 -0.313584
vn 0.118381 -0.474828 -0.872080
vn 0.118381 -0.474828 -0.872080
vn 0.118381 -0.474828 -0.872080
vn 0.118381 -0.474828 -0.872080
vn -0.118381 -0.474828 -0.872081
vn -0.118381 -0.474828 -0.872081
vn -0.118381 -0.474828 -0.872081
vn -0.118381 -0.474828 -0.872081
vn -0.655634 -0.686884 -0.313585
vn -0.655634 -0.686884 -0.313585
vn -0.655634 -0.686884 -0.313585
vn -0.655633 -0.686884 -0.313585
vn -0.655634 -0.686884 0.313584
vn -0.655634 -0.686884 0.313584
vn -0.655634 -0.686884 0.313584
vn -0.655634 -0.686884 0.313584
vn -0.118381 -0.474828 0.872080
vn -0.118381 -0.474828 0.872080
vn -0.118381 -0.474828 0.872080
vn -0.118381 -0.474828 0.872080
s 1
g Hammer_Mesh
usemtl lambert2SG
f 1/10/1 22/11/2 23/12/3 3/13/4
s 2
f 5/14/5 20/15/6 21/16/7 7/17/8
s 3
f 29/1/9 30/2/10 22/3/11 1/4/12
s 4
f 2/18/13 31/19/14 32/20/15 4/21/16
s 5
f 29/22/17 1/10/18 3/13/19 28/23/20
s 1
f 3/13/4 23/12/3 24/192/21 9/196/22
s 4
f 4/21/16 32/20/15 33/188/23 10/193/24
s 2
f 20/15/6 5/14/5 12/28/25 19/195/26
s 5
f 28/23/20 3/13/19 9/196/27 27/30/28
s 1
usemtl blinn4SG
f 9/25/22 24/24/21 17/31/29 13/32/30
s 4
f 10/27/24 33/26/23 25/33/31 14/34/32
s 2
f 19/29/26 12/191/25 16/35/33 18/36/34
s 5
f 27/190/28 9/25/27 13/32/35 26/37/36
s 2
f 11/38/37 19/194/26 18/42/34 15/39/38
usemtl lambert2SG
f 6/40/39 20/43/6 19/41/26 11/189/37
f 21/45/7 20/43/6 6/40/39 8/44/40
s 3
f 22/3/11 30/2/10 31/5/41 2/6/42
s 1
f 23/12/3 22/11/2 2/18/43 4/21/44
f 24/192/21 23/12/3 4/21/44 10/193/45
usemtl blinn4SG
f 17/31/29 24/24/21 10/27/45 14/34/46
s 5
f 12/191/47 27/190/28 26/37/36 16/35/48
usemtl lambert2SG
f 5/14/49 28/23/20 27/30/28 12/28/47
f 7/17/50 29/22/17 28/23/20 5/14/49
s 3
f 7/7/51 21/8/52 30/2/10 29/1/9
f 31/5/41 30/2/10 21/8/52 8/9/53
s 4
f 32/20/15 31/19/14 8/44/54 6/40/55
f 33/188/23 32/20/15 6/40/55 11/189/56
usemtl blinn4SG
f 25/33/31 33/26/23 11/38/56 15/39/57
s 6
usemtl blinn3SG
f 34/154/58 121/155/59 122/156/60 99/157/61
s 7
f 36/158/62 116/159/63 117/160/64 79/161/65
s 8
f 109/186/66 119/185/67 120/164/68 40/165/69
s 9
usemtl blinn1SG
f 67/46/70 93/47/71 115/48/72 94/49/73
s 10
f 84/50/74 71/51/75 103/52/76 104/53/77
s 11
usemtl blinn2SG
f 35/64/78 89/65/79 90/66/80 43/67/81
s 8
f 41/136/82 110/137/83 111/142/84 42/141/85
s 7
f 78/70/86 37/71/87 45/72/88 77/73/89
s 6
f 98/74/90 35/64/91 43/67/92 97/75/93
s 12
f 88/76/94 34/77/95 47/78/96 87/79/97
s 6
f 34/77/58 99/80/61 100/81/98 47/78/99
s 7
f 36/82/62 79/83/65 80/84/100 48/85/101
s 8
f 109/138/66 40/87/69 46/139/102 108/140/103
s 11
f 43/67/81 90/66/80 91/89/104 51/90/105
s 8
f 42/141/85 111/142/84 112/146/106 50/145/107
s 7
f 77/73/89 45/72/88 53/92/108 76/93/109
s 6
f 97/75/93 43/67/92 51/90/110 96/94/111
s 12
f 87/79/97 47/78/96 55/95/112 86/96/113
s 6
f 47/78/99 100/81/98 101/97/114 55/95/115
s 7
f 48/85/101 80/84/100 81/98/116 56/99/117
s 8
f 108/140/103 46/139/102 54/143/118 107/144/119
s 13
f 51/90/120 91/89/121 92/101/122 59/102/123
s 14
f 50/145/124 112/146/125 113/150/126 58/149/127
s 15
f 76/93/128 53/92/129 61/104/130 75/105/131
s 16
f 96/94/132 51/90/133 59/102/134 95/106/135
s 17
f 86/96/136 55/95/137 63/107/138 85/108/139
s 18
f 55/95/140 101/97/141 102/109/142 63/107/143
s 19
f 56/99/144 81/98/145 82/110/146 64/111/147
s 20
f 107/144/148 54/143/149 62/147/150 106/148/151
s 21
f 59/102/152 92/101/153 93/113/154 67/114/155
s 22
f 58/149/156 113/150/157 114/151/158 66/116/159
s 23
f 75/105/160 61/104/161 69/117/162 74/118/163
s 24
f 95/106/164 59/102/165 67/114/166 94/119/167
s 25
f 85/108/168 63/107/169 71/120/170 84/121/171
s 26
f 63/107/172 102/109/173 103/122/174 71/120/175
s 27
f 64/111/176 82/110/177 83/123/178 72/124/179
s 28
f 106/148/180 62/147/181 70/152/182 105/153/183
s 23
f 60/126/184 75/105/160 74/118/163 68/127/185
s 15
f 52/128/186 76/93/128 75/105/131 60/126/187
s 7
f 44/129/188 77/73/89 76/93/109 52/128/189
f 39/130/190 78/70/86 77/73/89 44/129/188
usemtl blinn3SG
f 79/161/65 117/160/64 118/166/191 38/167/192
usemtl blinn2SG
f 80/84/100 79/83/65 38/131/192 49/132/193
f 81/98/116 80/84/100 49/132/193 57/133/194
s 19
f 82/110/146 81/98/145 57/133/195 65/134/196
s 27
f 83/123/178 82/110/177 65/134/197 73/135/198
s 10
usemtl blinn1SG
f 70/54/199 84/50/74 104/53/77 105/55/200
s 25
usemtl blinn2SG
f 62/147/201 85/108/168 84/121/171 70/152/202
s 17
f 54/143/203 86/96/136 85/108/139 62/147/204
s 12
f 46/139/205 87/79/97 86/96/113 54/143/206
f 40/87/207 88/76/94 87/79/97 46/139/205
s 11
f 90/66/80 89/65/79 41/136/208 42/141/209
f 91/89/104 90/66/80 42/141/209 50/145/210
s 13
f 92/101/122 91/89/121 50/145/211 58/149/212
s 21
f 93/113/154 92/101/153 58/149/213 66/116/214
s 9
usemtl blinn1SG
f 115/48/72 93/47/71 66/56/215 114/57/216
s 24
usemtl blinn2SG
f 61/104/217 95/106/164 94/119/167 69/117/218
s 16
f 53/92/219 96/94/132 95/106/135 61/104/220
s 6
f 45/72/221 97/75/93 96/94/111 53/92/222
f 37/71/223 98/74/90 97/75/93 45/72/221
usemtl blinn3SG
f 99/157/61 122/156/60 116/159/224 36/158/225
usemtl blinn2SG
f 100/81/98 99/80/61 36/82/225 48/85/226
f 101/97/114 100/81/98 48/85/226 56/99/227
s 18
f 102/109/142 101/97/141 56/99/228 64/111/229
s 26
f 103/122/174 102/109/173 64/111/230 72/124/231
s 10
usemtl blinn1SG
f 104/53/77 103/52/76 72/58/232 83/59/233
f 105/55/200 104/53/77 83/59/233 73/60/234
s 28
usemtl blinn2SG
f 65/134/235 106/112/180 105/125/183 73/135/236
s 20
f 57/133/237 107/100/148 106/112/151 65/134/238
s 8
f 49/132/239 108/88/103 107/100/119 57/133/240
f 38/131/241 109/86/66 108/88/103 49/132/239
usemtl blinn3SG
f 38/167/241 118/166/242 119/163/67 109/162/66
usemtl blinn2SG
f 111/69/84 110/68/83 39/130/243 44/129/244
f 112/91/106 111/69/84 44/129/244 52/128/245
s 14
f 113/103/126 112/91/125 52/128/246 60/126/247
s 22
f 114/115/158 113/103/157 60/126/248 68/127/249
s 9
usemtl blinn1SG
f 74/61/250 115/48/72 114/57/216 68/62/251
f 94/49/73 115/48/72 74/61/250 69/63/252
s 7
usemtl blinn3SG
f 116/159/63 37/168/87 78/169/86 117/160/64
f 118/166/191 117/160/64 78/169/86 39/170/190
s 8
f 119/163/67 118/166/242 39/170/243 110/171/83
f 120/164/68 119/185/67 110/187/83 41/172/82
s 6
f 122/156/60 121/155/59 35/173/91 98/174/90
f 116/159/224 122/156/60 98/174/90 37/168/223
s off
f 17/175/253 14/176/254 35/173/255 121/155/256
f 14/176/257 25/177/258 89/178/259 35/173/260
f 25/177/261 15/179/262 41/172/263 89/178/264
f 15/179/265 18/180/266 120/164/267 41/172/268
f 18/180/269 16/181/270 40/165/271 120/164/272
f 16/181/273 26/182/274 88/183/275 40/165/276
f 26/182/277 13/184/278 34/154/279 88/183/280
f 13/184/281 17/175/282 121/155/283 34/154/284
